<svg width="200" height="200" viewBox="0 0 200 200" fill="none" xmlns="http://www.w3.org/2000/svg">
<g clip-path="url(#clip0_350_25)">
<path d="M99.9997 0C44.8574 0 0 44.8589 0 100.001C0 155.141 44.8574 200 99.9997 200C155.141 200 199.999 155.141 199.999 100.001C200 44.8589 155.141 0 99.9997 0ZM99.9997 126.841C85.1986 126.841 73.1571 114.801 73.1571 99.9968C73.1571 85.1956 85.1981 73.1556 99.9997 73.1556C114.801 73.1556 126.841 85.1956 126.841 99.9968C126.841 114.802 114.802 126.841 99.9997 126.841ZM167.5 104C164.117 104 165.5 100.882 165.5 97.5C165.5 64.597 135.903 35.5 103 35.5C99.6182 35.5 96 35.3823 96 32C96 28.6211 97 28.5 99.9997 28.0796C139.658 28.0796 172 59.3423 172 99C172 102.383 170.878 104 167.5 104Z" fill="black"/>
<ellipse cx="100.5" cy="99.5" rx="36.5" ry="37.5" fill="#E63946"/>
<path d="M99.9997 88.4625C93.6392 88.4625 88.4604 93.6378 88.4604 100.001C88.4604 106.363 93.6357 111.541 99.9997 111.541C106.364 111.541 111.538 106.364 111.538 100.001C111.538 93.6378 106.361 88.4625 99.9997 88.4625Z" fill="black"/>
</g>
<defs>
<clipPath id="clip0_350_25">
<rect width="200" height="200" fill="white"/>
</clipPath>
</defs>
</svg>
